<mxfile host="app.diagrams.net" modified="2022-05-12T03:11:53.331Z" agent="5.0 (Windows NT 10.0; Win64; x64) AppleWebKit/537.36 (KHTML, like Gecko) Chrome/101.0.4951.54 Safari/537.36" etag="oIrfwEGGZUqt0EpAv3iK" version="17.1.3" type="github">
  <diagram id="NBubp0v1qvnunBZHKLny" name="Page-1">
    <mxGraphModel dx="1038" dy="547" grid="1" gridSize="10" guides="1" tooltips="1" connect="1" arrows="1" fold="1" page="1" pageScale="1" pageWidth="827" pageHeight="1169" math="0" shadow="0">
      <root>
        <mxCell id="0" />
        <mxCell id="1" parent="0" />
        <mxCell id="GhOAuojsXCwLf6vtrv8b-1" value="" style="rounded=0;whiteSpace=wrap;html=1;" vertex="1" parent="1">
          <mxGeometry x="40" y="40" width="730" height="440" as="geometry" />
        </mxCell>
        <mxCell id="GhOAuojsXCwLf6vtrv8b-2" value="" style="rounded=0;whiteSpace=wrap;html=1;" vertex="1" parent="1">
          <mxGeometry x="40" y="40" width="180" height="440" as="geometry" />
        </mxCell>
        <mxCell id="GhOAuojsXCwLf6vtrv8b-3" value="" style="rounded=1;arcSize=36;whiteSpace=wrap;html=1;align=center;fontFamily=Helvetica;fontSize=10;fontColor=default;strokeColor=default;fillColor=default;" vertex="1" parent="1">
          <mxGeometry x="48.589999999999996" y="377.5" width="165" height="30" as="geometry" />
        </mxCell>
        <mxCell id="GhOAuojsXCwLf6vtrv8b-4" value="" style="rounded=0;whiteSpace=wrap;html=1;fontFamily=Helvetica;fontSize=10;fontColor=default;strokeColor=default;strokeWidth=1;fillColor=default;gradientColor=none;" vertex="1" parent="1">
          <mxGeometry x="230" y="67.5" width="530" height="212.5" as="geometry" />
        </mxCell>
        <mxCell id="GhOAuojsXCwLf6vtrv8b-5" value="" style="rounded=1;arcSize=36;whiteSpace=wrap;html=1;align=center;fontFamily=Helvetica;fontSize=10;fontColor=default;strokeColor=default;fillColor=default;" vertex="1" parent="1">
          <mxGeometry x="45" y="160" width="165" height="30" as="geometry" />
        </mxCell>
        <mxCell id="GhOAuojsXCwLf6vtrv8b-6" value="" style="rounded=1;arcSize=36;whiteSpace=wrap;html=1;align=center;fontFamily=Helvetica;fontSize=10;fontColor=default;strokeColor=default;fillColor=default;" vertex="1" parent="1">
          <mxGeometry x="48.589999999999996" y="340" width="165" height="30" as="geometry" />
        </mxCell>
        <mxCell id="GhOAuojsXCwLf6vtrv8b-7" value="" style="rounded=1;arcSize=36;whiteSpace=wrap;html=1;align=center;fontFamily=Helvetica;fontSize=10;fontColor=default;strokeColor=default;fillColor=default;" vertex="1" parent="1">
          <mxGeometry x="45" y="100" width="165" height="30" as="geometry" />
        </mxCell>
        <mxCell id="GhOAuojsXCwLf6vtrv8b-8" value="Nhóm 5" style="text;html=1;strokeColor=none;fillColor=none;align=center;verticalAlign=middle;whiteSpace=wrap;rounded=0;fontSize=12;" vertex="1" parent="1">
          <mxGeometry x="110" y="57.5" width="60" height="30" as="geometry" />
        </mxCell>
        <mxCell id="GhOAuojsXCwLf6vtrv8b-9" value="img" style="rounded=0;whiteSpace=wrap;html=1;" vertex="1" parent="1">
          <mxGeometry x="70" y="60" width="30" height="25" as="geometry" />
        </mxCell>
        <mxCell id="GhOAuojsXCwLf6vtrv8b-10" value="" style="rounded=1;arcSize=36;whiteSpace=wrap;html=1;align=center;fontFamily=Helvetica;fontSize=10;fontColor=default;strokeColor=default;fillColor=default;" vertex="1" parent="1">
          <mxGeometry x="46.4" y="302" width="165" height="30" as="geometry" />
        </mxCell>
        <mxCell id="GhOAuojsXCwLf6vtrv8b-11" value="icon" style="rounded=0;whiteSpace=wrap;html=1;" vertex="1" parent="1">
          <mxGeometry x="50" y="107.5" width="30" height="15" as="geometry" />
        </mxCell>
        <mxCell id="GhOAuojsXCwLf6vtrv8b-12" value="" style="rounded=1;arcSize=36;whiteSpace=wrap;html=1;align=center;fontFamily=Helvetica;fontSize=10;fontColor=default;strokeColor=default;fillColor=default;" vertex="1" parent="1">
          <mxGeometry x="46.4" y="240" width="165" height="30" as="geometry" />
        </mxCell>
        <mxCell id="GhOAuojsXCwLf6vtrv8b-13" value="" style="line;strokeWidth=2;html=1;rounded=0;fontFamily=Helvetica;fontSize=12;fontColor=default;fillColor=default;" vertex="1" parent="1">
          <mxGeometry x="50" y="90" width="160" height="10" as="geometry" />
        </mxCell>
        <mxCell id="GhOAuojsXCwLf6vtrv8b-14" value="Trang chủ admin" style="text;html=1;strokeColor=none;fillColor=none;align=center;verticalAlign=middle;whiteSpace=wrap;rounded=0;fontSize=10;" vertex="1" parent="1">
          <mxGeometry x="90" y="107.5" width="80" height="15" as="geometry" />
        </mxCell>
        <mxCell id="GhOAuojsXCwLf6vtrv8b-15" value="" style="line;strokeWidth=2;html=1;rounded=0;fontFamily=Helvetica;fontSize=12;fontColor=default;fillColor=default;" vertex="1" parent="1">
          <mxGeometry x="50" y="130" width="160" height="10" as="geometry" />
        </mxCell>
        <mxCell id="GhOAuojsXCwLf6vtrv8b-16" value="Loại danh mục" style="text;html=1;strokeColor=none;fillColor=none;align=center;verticalAlign=middle;whiteSpace=wrap;rounded=0;fontSize=10;" vertex="1" parent="1">
          <mxGeometry x="90" y="170" width="70" height="10" as="geometry" />
        </mxCell>
        <mxCell id="GhOAuojsXCwLf6vtrv8b-17" value="Sản Phẩm" style="text;html=1;strokeColor=none;fillColor=none;align=center;verticalAlign=middle;whiteSpace=wrap;rounded=0;fontSize=10;" vertex="1" parent="1">
          <mxGeometry x="91.4" y="247.5" width="50" height="15" as="geometry" />
        </mxCell>
        <mxCell id="GhOAuojsXCwLf6vtrv8b-18" value="Khách hàng - đối tác" style="text;html=1;strokeColor=none;fillColor=none;align=center;verticalAlign=middle;whiteSpace=wrap;rounded=0;fontSize=10;" vertex="1" parent="1">
          <mxGeometry x="91.4" y="309.5" width="100" height="15" as="geometry" />
        </mxCell>
        <mxCell id="GhOAuojsXCwLf6vtrv8b-19" value="" style="line;strokeWidth=2;html=1;rounded=0;fontFamily=Helvetica;fontSize=12;fontColor=default;fillColor=default;" vertex="1" parent="1">
          <mxGeometry x="51.089999999999996" y="272" width="160" height="10" as="geometry" />
        </mxCell>
        <mxCell id="GhOAuojsXCwLf6vtrv8b-20" value="Quản trị danh mục" style="text;html=1;strokeColor=none;fillColor=none;align=center;verticalAlign=middle;whiteSpace=wrap;rounded=0;fontSize=10;" vertex="1" parent="1">
          <mxGeometry x="45" y="140" width="95" height="20" as="geometry" />
        </mxCell>
        <mxCell id="GhOAuojsXCwLf6vtrv8b-21" value="Thống kê" style="text;html=1;strokeColor=none;fillColor=none;align=center;verticalAlign=middle;whiteSpace=wrap;rounded=0;fontSize=10;" vertex="1" parent="1">
          <mxGeometry x="51.4" y="282" width="50" height="20" as="geometry" />
        </mxCell>
        <mxCell id="GhOAuojsXCwLf6vtrv8b-22" value="Doanh Thu" style="text;html=1;strokeColor=none;fillColor=none;align=center;verticalAlign=middle;whiteSpace=wrap;rounded=0;fontSize=10;" vertex="1" parent="1">
          <mxGeometry x="93.59" y="347.5" width="60" height="15" as="geometry" />
        </mxCell>
        <mxCell id="GhOAuojsXCwLf6vtrv8b-23" value="Tài Khoản" style="text;html=1;strokeColor=none;fillColor=none;align=center;verticalAlign=middle;whiteSpace=wrap;rounded=0;fontSize=10;" vertex="1" parent="1">
          <mxGeometry x="93.59" y="385" width="60" height="15" as="geometry" />
        </mxCell>
        <mxCell id="GhOAuojsXCwLf6vtrv8b-24" value="icon" style="rounded=0;whiteSpace=wrap;html=1;" vertex="1" parent="1">
          <mxGeometry x="50" y="167.5" width="30" height="15" as="geometry" />
        </mxCell>
        <mxCell id="GhOAuojsXCwLf6vtrv8b-25" value="icon" style="rounded=0;whiteSpace=wrap;html=1;" vertex="1" parent="1">
          <mxGeometry x="51.4" y="247.5" width="30" height="15" as="geometry" />
        </mxCell>
        <mxCell id="GhOAuojsXCwLf6vtrv8b-26" value="icon" style="rounded=0;whiteSpace=wrap;html=1;" vertex="1" parent="1">
          <mxGeometry x="51.4" y="309.5" width="30" height="15" as="geometry" />
        </mxCell>
        <mxCell id="GhOAuojsXCwLf6vtrv8b-27" value="icon" style="rounded=0;whiteSpace=wrap;html=1;" vertex="1" parent="1">
          <mxGeometry x="53.589999999999996" y="347.5" width="30" height="15" as="geometry" />
        </mxCell>
        <mxCell id="GhOAuojsXCwLf6vtrv8b-28" value="icon" style="rounded=0;whiteSpace=wrap;html=1;" vertex="1" parent="1">
          <mxGeometry x="53.589999999999996" y="385" width="30" height="15" as="geometry" />
        </mxCell>
        <mxCell id="GhOAuojsXCwLf6vtrv8b-29" value="Danh mục" style="text;html=1;strokeColor=none;fillColor=none;align=center;verticalAlign=middle;whiteSpace=wrap;rounded=0;fontSize=12;" vertex="1" parent="1">
          <mxGeometry x="220" y="37.5" width="60" height="30" as="geometry" />
        </mxCell>
        <mxCell id="GhOAuojsXCwLf6vtrv8b-30" value="Danh sách danh mục" style="text;html=1;strokeColor=none;fillColor=none;align=center;verticalAlign=middle;whiteSpace=wrap;rounded=0;fontFamily=Helvetica;fontSize=10;fontColor=default;" vertex="1" parent="1">
          <mxGeometry x="240" y="72.5" width="100" height="17.5" as="geometry" />
        </mxCell>
        <mxCell id="GhOAuojsXCwLf6vtrv8b-32" value="&amp;gt;" style="rounded=0;whiteSpace=wrap;html=1;fontFamily=Helvetica;fontSize=10;fontColor=default;strokeColor=default;fillColor=default;strokeWidth=1;gradientColor=none;" vertex="1" parent="1">
          <mxGeometry x="191.4" y="252.5" width="10" height="10" as="geometry" />
        </mxCell>
        <mxCell id="GhOAuojsXCwLf6vtrv8b-34" value="" style="rounded=1;arcSize=8;whiteSpace=wrap;html=1;align=center;fontFamily=Helvetica;fontSize=10;fontColor=default;strokeColor=default;fillColor=default;" vertex="1" parent="1">
          <mxGeometry x="47.19" y="190" width="160.62" height="40" as="geometry" />
        </mxCell>
        <mxCell id="GhOAuojsXCwLf6vtrv8b-35" value="Loại Danh Mục" style="text;html=1;strokeColor=none;fillColor=none;align=center;verticalAlign=middle;whiteSpace=wrap;rounded=0;fontFamily=Helvetica;fontSize=10;fontColor=default;textOpacity=90;spacing=2;spacingBottom=14;" vertex="1" parent="1">
          <mxGeometry x="52.19" y="202.5" width="77.81" height="10" as="geometry" />
        </mxCell>
        <mxCell id="GhOAuojsXCwLf6vtrv8b-36" value="Danh sách danh mục" style="text;html=1;strokeColor=none;fillColor=none;align=center;verticalAlign=middle;whiteSpace=wrap;rounded=0;fontFamily=Helvetica;fontSize=10;fontColor=default;" vertex="1" parent="1">
          <mxGeometry x="68.6" y="212.5" width="105.93" height="10" as="geometry" />
        </mxCell>
        <mxCell id="GhOAuojsXCwLf6vtrv8b-40" value="" style="shape=table;html=1;whiteSpace=wrap;startSize=0;container=1;collapsible=0;childLayout=tableLayout;rounded=0;fontFamily=Helvetica;fontSize=7;fontColor=default;strokeColor=default;strokeWidth=1;fillColor=default;gradientColor=none;direction=east;flipV=1;" vertex="1" parent="1">
          <mxGeometry x="240" y="103.75" width="510" height="22.5" as="geometry" />
        </mxCell>
        <mxCell id="GhOAuojsXCwLf6vtrv8b-41" value="" style="shape=tableRow;horizontal=0;startSize=0;swimlaneHead=0;swimlaneBody=0;top=0;left=0;bottom=0;right=0;collapsible=0;dropTarget=0;fillColor=none;points=[[0,0.5],[1,0.5]];portConstraint=eastwest;rounded=0;fontFamily=Helvetica;fontSize=8;fontColor=default;strokeColor=default;strokeWidth=1;html=1;" vertex="1" parent="GhOAuojsXCwLf6vtrv8b-40">
          <mxGeometry width="510" height="23" as="geometry" />
        </mxCell>
        <mxCell id="GhOAuojsXCwLf6vtrv8b-42" value="&lt;font style=&quot;font-size: 8px&quot;&gt;id danh mục&lt;/font&gt;" style="shape=partialRectangle;html=1;whiteSpace=wrap;connectable=0;fillColor=none;top=0;left=0;bottom=0;right=0;overflow=hidden;rounded=0;fontFamily=Helvetica;fontSize=10;fontColor=default;strokeColor=default;strokeWidth=1;" vertex="1" parent="GhOAuojsXCwLf6vtrv8b-41">
          <mxGeometry width="154" height="23" as="geometry">
            <mxRectangle width="154" height="23" as="alternateBounds" />
          </mxGeometry>
        </mxCell>
        <mxCell id="GhOAuojsXCwLf6vtrv8b-43" value="&lt;font style=&quot;font-size: 8px&quot;&gt;Tên danh mục cha&lt;/font&gt;" style="shape=partialRectangle;html=1;whiteSpace=wrap;connectable=0;fillColor=none;top=0;left=0;bottom=0;right=0;overflow=hidden;rounded=0;fontFamily=Helvetica;fontSize=10;fontColor=default;strokeColor=default;strokeWidth=1;" vertex="1" parent="GhOAuojsXCwLf6vtrv8b-41">
          <mxGeometry x="154" width="178" height="23" as="geometry">
            <mxRectangle width="178" height="23" as="alternateBounds" />
          </mxGeometry>
        </mxCell>
        <mxCell id="GhOAuojsXCwLf6vtrv8b-44" value="&lt;font style=&quot;font-size: 8px&quot;&gt;Tên danh mục&lt;/font&gt;" style="shape=partialRectangle;html=1;whiteSpace=wrap;connectable=0;fillColor=none;top=0;left=0;bottom=0;right=0;overflow=hidden;rounded=0;fontFamily=Helvetica;fontSize=10;fontColor=default;strokeColor=default;strokeWidth=1;" vertex="1" parent="GhOAuojsXCwLf6vtrv8b-41">
          <mxGeometry x="332" width="178" height="23" as="geometry">
            <mxRectangle width="178" height="23" as="alternateBounds" />
          </mxGeometry>
        </mxCell>
        <mxCell id="GhOAuojsXCwLf6vtrv8b-50" value="" style="line;strokeWidth=2;html=1;rounded=0;fontFamily=Helvetica;fontSize=12;fontColor=default;fillColor=default;" vertex="1" parent="1">
          <mxGeometry x="230" y="87.5" width="530" height="10" as="geometry" />
        </mxCell>
        <mxCell id="GhOAuojsXCwLf6vtrv8b-51" value="&lt;font style=&quot;font-size: 12px&quot;&gt;ListView&lt;/font&gt;" style="rounded=0;whiteSpace=wrap;html=1;fontFamily=Helvetica;fontSize=8;fontColor=default;strokeColor=default;strokeWidth=1;fillColor=default;gradientColor=none;" vertex="1" parent="1">
          <mxGeometry x="240" y="126.25" width="510" height="143.75" as="geometry" />
        </mxCell>
        <mxCell id="GhOAuojsXCwLf6vtrv8b-52" value="&amp;gt;" style="rounded=0;whiteSpace=wrap;html=1;fontFamily=Helvetica;fontSize=10;fontColor=default;strokeColor=default;fillColor=default;strokeWidth=1;gradientColor=none;textOpacity=90;rotation=90;" vertex="1" parent="1">
          <mxGeometry x="190" y="170" width="10" height="10" as="geometry" />
        </mxCell>
        <mxCell id="GhOAuojsXCwLf6vtrv8b-53" value="&amp;gt;" style="rounded=0;whiteSpace=wrap;html=1;fontFamily=Helvetica;fontSize=10;fontColor=default;strokeColor=default;fillColor=default;strokeWidth=1;gradientColor=none;" vertex="1" parent="1">
          <mxGeometry x="191.4" y="312" width="10" height="10" as="geometry" />
        </mxCell>
        <mxCell id="GhOAuojsXCwLf6vtrv8b-55" value="" style="rounded=1;arcSize=23;whiteSpace=wrap;html=1;align=center;fontFamily=Helvetica;fontSize=10;fontColor=default;strokeColor=default;fillColor=default;" vertex="1" parent="1">
          <mxGeometry x="230" y="302" width="530" height="30" as="geometry" />
        </mxCell>
        <mxCell id="GhOAuojsXCwLf6vtrv8b-56" value="id danh mục" style="text;html=1;strokeColor=none;fillColor=none;align=center;verticalAlign=middle;whiteSpace=wrap;rounded=0;fontSize=11;" vertex="1" parent="1">
          <mxGeometry x="230" y="288" width="70" height="8" as="geometry" />
        </mxCell>
        <mxCell id="GhOAuojsXCwLf6vtrv8b-57" value="" style="rounded=1;arcSize=23;whiteSpace=wrap;html=1;align=center;fontFamily=Helvetica;fontSize=10;fontColor=default;strokeColor=default;fillColor=default;" vertex="1" parent="1">
          <mxGeometry x="230" y="354" width="530" height="30" as="geometry" />
        </mxCell>
        <mxCell id="GhOAuojsXCwLf6vtrv8b-58" value="Tên danh mục cha" style="text;html=1;strokeColor=none;fillColor=none;align=center;verticalAlign=middle;whiteSpace=wrap;rounded=0;fontSize=11;" vertex="1" parent="1">
          <mxGeometry x="230" y="340" width="100" height="8" as="geometry" />
        </mxCell>
        <mxCell id="GhOAuojsXCwLf6vtrv8b-59" value="" style="rounded=1;arcSize=23;whiteSpace=wrap;html=1;align=center;fontFamily=Helvetica;fontSize=10;fontColor=default;strokeColor=default;fillColor=default;" vertex="1" parent="1">
          <mxGeometry x="230" y="404" width="530" height="30" as="geometry" />
        </mxCell>
        <mxCell id="GhOAuojsXCwLf6vtrv8b-60" value="Tên danh mục" style="text;html=1;strokeColor=none;fillColor=none;align=center;verticalAlign=middle;whiteSpace=wrap;rounded=0;fontSize=11;" vertex="1" parent="1">
          <mxGeometry x="230" y="390" width="80" height="8" as="geometry" />
        </mxCell>
        <mxCell id="GhOAuojsXCwLf6vtrv8b-61" value="Thêm danh mục" style="rounded=1;arcSize=36;whiteSpace=wrap;html=1;align=center;fontFamily=Helvetica;fontSize=10;fontColor=default;strokeColor=default;fillColor=default;" vertex="1" parent="1">
          <mxGeometry x="655" y="450" width="105" height="20" as="geometry" />
        </mxCell>
      </root>
    </mxGraphModel>
  </diagram>
</mxfile>
